<svg width="128" height="128" viewBox="0 0 128 128" fill="none" xmlns="http://www.w3.org/2000/svg">
<path d="M63.9903 128C57.5691 128.011 51.194 126.767 45.1438 124.323C43.2383 123.556 41.3716 122.67 39.552 121.669C37.2575 120.423 35.0429 118.995 32.9246 117.397C31.0657 116.006 29.2827 114.488 27.5852 112.853C20.4461 105.991 14.9224 97.2185 11.5122 87.3262C8.10202 77.4339 6.91252 66.7328 8.05097 56.1879C9.18943 45.643 12.62 35.5858 18.0335 26.9231C23.4469 18.2604 30.673 11.2646 39.0601 6.56641H39.1119C45.8727 2.79528 53.2292 0.598827 60.7484 0.106347C68.2676 -0.386134 75.7976 0.835307 82.8951 3.69878H82.9339C92.7882 7.70035 101.467 14.74 107.999 24.0291C114.53 33.3182 118.656 44.49 119.915 56.2928C121.173 68.0957 119.514 80.0635 115.123 90.8556C110.733 101.648 103.784 110.838 95.056 117.397C91.2437 120.253 87.1435 122.578 82.8433 124.323C76.791 126.768 70.4137 128.011 63.9903 128ZM39.7267 7.82376L39.6749 7.86053C31.4744 12.4471 24.408 19.281 19.1132 27.7457C13.8184 36.2104 10.4619 46.0395 9.34643 56.3464C8.23097 66.6532 9.39167 77.1134 12.7238 86.7832C16.056 96.453 21.4547 105.028 28.433 111.735C30.0879 113.326 31.8279 114.8 33.643 116.147C35.7118 117.709 37.8745 119.105 40.115 120.323C41.8948 121.301 43.7205 122.168 45.5839 122.919C57.4935 127.703 70.4871 127.703 82.3967 122.919C86.5998 121.212 90.6084 118.941 94.3376 116.154C102.866 109.747 109.656 100.769 113.947 90.2256C118.237 79.682 119.86 67.9894 118.632 56.4576C117.403 44.9258 113.373 34.0102 106.993 24.9335C100.613 15.8568 92.1341 8.97761 82.5068 5.06642H82.4744C75.5458 2.26982 68.1952 1.07443 60.8543 1.55046C53.5134 2.02649 46.3302 4.16436 39.7267 7.83847V7.82376Z" fill="#390074"/>
<path d="M59.9323 71.6249H67.9576V83.5587H59.9323V71.6249Z" fill="#FFBC0E"/>
<path d="M67.9576 84.3013H59.9323C59.7607 84.3013 59.5961 84.2239 59.4747 84.086C59.3533 83.9481 59.2851 83.761 59.2851 83.566V71.6396C59.2851 71.4446 59.3533 71.2576 59.4747 71.1197C59.5961 70.9818 59.7607 70.9043 59.9323 70.9043H67.9576C68.1293 70.9043 68.2939 70.9818 68.4153 71.1197C68.5367 71.2576 68.6048 71.4446 68.6048 71.6396V83.5807C68.6015 83.7732 68.5318 83.9565 68.4108 84.0912C68.2897 84.2259 68.1271 84.3014 67.9576 84.3013ZM60.5795 82.8307H67.3104V72.3749H60.5795V82.8307Z" fill="#390074"/>
<path d="M32.8793 63.8456V63.9338C28.4265 62.8677 30.4976 69.1323 26.472 66.875C24.4851 65.7941 23.6631 71.2868 21.8121 69.9559L6.3893 38.5516C6.3893 38.5516 0.920445 33.456 0.661564 29.0884C0.402683 24.7208 4.00113 20.3973 5.91037 21.0002C7.04945 21.3679 11.3792 29.1399 11.3792 29.1399C12.2594 22.2649 13.7545 22.2576 14.9777 23.2576C16.2009 24.2576 14.5764 34.2281 14.5764 34.2281L18.9515 40.9192L31.5784 60.2574C32.2816 61.3031 32.7302 62.5406 32.8793 63.8456Z" fill="#FFBC0E"/>
<path d="M22.3881 70.9485C22.0586 70.938 21.7391 70.8179 21.4691 70.6029C21.3782 70.5391 21.3026 70.4507 21.2491 70.3456L5.87803 39.0516C5.10138 38.3163 0.266786 33.5148 0.0143772 29.1619C-0.173311 25.9708 1.50941 22.8972 3.14683 21.3899C4.18883 20.434 5.23729 20.059 6.07866 20.3311C7.08182 20.6546 9.31467 24.2649 11.0168 27.1913C11.5281 24.2502 12.2335 22.7281 13.2432 22.2355C13.597 22.0896 13.9789 22.0542 14.3489 22.1331C14.7188 22.212 15.0634 22.4022 15.3466 22.684C16.641 23.7428 15.8773 30.1325 15.2625 34.0737L32.0897 59.8456C32.8523 60.9861 33.3428 62.3309 33.5136 63.75V63.8382C33.5269 63.9543 33.5157 64.0722 33.4809 64.1824C33.4461 64.2925 33.3886 64.3916 33.3133 64.4714C33.238 64.5513 33.147 64.6095 33.0478 64.6413C32.9487 64.6731 32.8443 64.6776 32.7434 64.6544C31.0024 64.2426 30.6206 65.0515 30.0898 66.1838C29.5591 67.3162 28.7954 68.9926 26.2066 67.5662C25.786 67.3382 25.43 67.7353 24.6404 68.9632C24.0968 69.7941 23.3654 70.9411 22.3881 70.9485ZM22.2846 69.4338C22.5564 69.5294 22.8347 69.2647 23.579 68.1029C24.3233 66.9412 25.2811 65.4338 26.7568 66.2426C28.2324 67.0514 28.4265 66.625 28.9637 65.5073C29.4362 64.5 30.1157 63.0221 32.0832 63.1029C31.8766 62.2521 31.5296 61.4537 31.0606 60.75L14.0522 34.7207C13.999 34.6394 13.9613 34.5465 13.9412 34.4478C13.9212 34.3491 13.9193 34.2467 13.9357 34.1472C14.6347 29.7354 15.0554 24.5884 14.5829 23.8531C14.0716 23.4487 13.8451 23.5516 13.7739 23.5884C13.4503 23.7502 12.6283 24.6178 12.0329 29.2869C12.0146 29.4366 11.9561 29.5763 11.8654 29.6869C11.7747 29.7976 11.6562 29.8737 11.5261 29.9051C11.3959 29.9364 11.2604 29.9214 11.138 29.8621C11.0156 29.8028 10.9123 29.7021 10.8421 29.5737C8.90046 26.0663 6.37637 22.0737 5.7227 21.7355C5.39969 21.7267 5.07853 21.7933 4.77908 21.9312C4.47963 22.069 4.20824 22.2752 3.98172 22.5369C3.13526 23.3285 2.4566 24.3265 1.9961 25.4569C1.53561 26.5872 1.30511 27.8209 1.32172 29.0663C1.55472 33.0663 6.75822 37.956 6.81 38.0075C6.87319 38.0667 6.9259 38.1391 6.96532 38.2207L22.2846 69.4338Z" fill="#390074"/>
<path d="M8.7775 35.8751C8.65118 35.8756 8.5275 35.8341 8.4217 35.7557C8.3159 35.6773 8.23259 35.5654 8.18207 35.4339C7.38601 33.331 7.34718 31.6251 8.0591 30.3604C9.08168 28.5369 11.2563 28.4486 11.3469 28.4413C11.5185 28.4345 11.6855 28.5054 11.8112 28.6384C11.9368 28.7715 12.0107 28.9558 12.0167 29.1508C12.0228 29.3458 11.9603 29.5356 11.8432 29.6783C11.7261 29.821 11.5638 29.905 11.3922 29.9119C11.3922 29.9119 9.79361 29.9927 9.1464 31.1619C8.68042 31.9927 8.75808 33.228 9.36645 34.8383C9.43365 35.0168 9.43598 35.2183 9.37293 35.3987C9.30988 35.5792 9.18657 35.724 9.02991 35.8015C8.95166 35.8472 8.86541 35.8723 8.7775 35.8751Z" fill="#390074"/>
<path d="M95.1013 63.8456V63.9338C99.554 62.8677 97.483 69.1323 101.509 66.875C103.495 65.7941 104.317 71.2868 106.168 69.9559L121.591 38.5516C121.591 38.5516 127.06 33.456 127.319 29.0884C127.578 24.7208 123.979 20.3973 122.07 21.0002C120.931 21.3679 116.601 29.1399 116.601 29.1399C115.721 22.2649 114.226 22.2576 113.003 23.2576C111.78 24.2576 113.404 34.2281 113.404 34.2281L109.029 40.9192L96.4022 60.2574C95.699 61.3031 95.2503 62.5406 95.1013 63.8456Z" fill="#FFBC0E"/>
<path d="M105.592 70.9485C104.615 70.9485 103.884 69.7941 103.353 68.9632C102.564 67.7279 102.208 67.3382 101.787 67.5662C99.1981 68.9926 98.402 67.3015 97.9037 66.1838C97.4054 65.0662 96.9911 64.2353 95.2502 64.6544C95.1492 64.6776 95.0448 64.6732 94.9457 64.6413C94.8466 64.6095 94.7556 64.5513 94.6803 64.4714C94.6049 64.3916 94.5475 64.2925 94.5126 64.1824C94.4778 64.0723 94.4666 63.9543 94.48 63.8382V63.75C94.6513 62.3276 95.1441 60.9799 95.9103 59.8383L112.738 34.1031C112.09 30.1619 111.353 23.809 112.653 22.7134C112.937 22.4317 113.281 22.2414 113.651 22.1625C114.021 22.0836 114.403 22.119 114.757 22.2649C115.766 22.7575 116.472 24.309 116.983 27.2208C118.672 24.2796 120.918 20.684 121.921 20.3605C122.769 20.0884 123.811 20.4634 124.853 21.4193C126.491 22.8899 128.173 26.0002 127.986 29.1913C127.733 33.5443 122.899 38.3457 122.122 39.081L106.706 70.3456C106.652 70.4507 106.577 70.5391 106.486 70.6029C106.223 70.8125 105.913 70.9324 105.592 70.9485ZM102.026 66.0147C103.068 66.0147 103.819 67.1985 104.402 68.1029C105.146 69.2647 105.424 69.5294 105.696 69.4338L121.035 38.2207C121.074 38.1391 121.127 38.0667 121.19 38.0075C121.242 37.956 126.445 33.059 126.678 29.0663C126.695 27.8209 126.464 26.5873 126.004 25.4569C125.543 24.3265 124.865 23.3285 124.018 22.537C123.79 22.2669 123.512 22.0566 123.205 21.9208C122.897 21.7849 122.568 21.7267 122.238 21.7502C121.591 22.0737 119.087 26.0664 117.139 29.5737C117.068 29.7021 116.965 29.8028 116.843 29.8621C116.72 29.9214 116.585 29.9364 116.455 29.9051C116.324 29.8737 116.206 29.7976 116.115 29.687C116.024 29.5763 115.966 29.4367 115.948 29.2869C115.352 24.6178 114.53 23.7502 114.207 23.5884C114.136 23.5517 113.909 23.4414 113.365 23.8825C112.906 24.6178 113.327 29.7649 114.013 34.1251C114.029 34.2247 114.027 34.327 114.007 34.4257C113.987 34.5244 113.949 34.6173 113.896 34.6987L96.8941 60.7206C96.4219 61.4257 96.0726 62.2269 95.865 63.0809C97.8066 63 98.5121 64.478 98.9845 65.4853C99.5217 66.625 99.7223 67.0515 101.191 66.2206C101.452 66.0792 101.738 66.0087 102.026 66.0147Z" fill="#390074"/>
<path d="M119.203 35.8751C119.116 35.8769 119.03 35.8568 118.951 35.8162C118.794 35.7387 118.671 35.5939 118.608 35.4134C118.545 35.233 118.547 35.0315 118.614 34.853C119.222 33.228 119.3 31.9927 118.834 31.1766C118.187 30.0075 116.608 29.9266 116.588 29.9266C116.417 29.9197 116.255 29.8357 116.137 29.693C116.02 29.5503 115.958 29.3606 115.964 29.1655C115.97 28.9705 116.044 28.7862 116.169 28.6532C116.295 28.5201 116.462 28.4492 116.634 28.456C116.724 28.456 118.899 28.5516 119.921 30.3751C120.633 31.6398 120.569 33.3163 119.799 35.4486C119.746 35.5774 119.662 35.6862 119.556 35.7618C119.451 35.8375 119.328 35.8768 119.203 35.8751Z" fill="#390074"/>
<path d="M88.0727 104.669C88.118 105.5 88.1439 106.338 88.1439 107.191V121.007C86.3464 121.999 84.5011 122.876 82.6168 123.632C70.565 128.475 57.4156 128.475 45.3638 123.632C43.4795 122.876 41.6342 121.999 39.8367 121.007V107.191C39.8367 106.287 39.8367 105.404 39.9209 104.522L17.23 68.147L33.6042 56.0809C33.6042 56.0809 54.5929 79.0587 56.1786 79.0587H71.8021C73.4201 79.0587 94.3765 56.2647 94.3765 56.2647L110.751 68.3382L88.0727 104.669Z" fill="#390074"/>
<path d="M63.9903 128C57.5691 128.011 51.194 126.767 45.1438 124.323C43.2383 123.556 41.3716 122.67 39.552 121.669C39.443 121.608 39.3513 121.514 39.2872 121.397C39.2231 121.28 39.1893 121.145 39.1895 121.007V107.191C39.1895 106.456 39.1895 105.61 39.2607 104.735L16.6992 68.5735C16.6492 68.492 16.6142 68.3998 16.5964 68.3025C16.5786 68.2052 16.5784 68.1048 16.5957 68.0074C16.6123 67.91 16.6461 67.8175 16.6951 67.7353C16.744 67.6532 16.8071 67.5831 16.8805 67.5294L33.2547 55.4633C33.3769 55.3745 33.5218 55.335 33.6661 55.351C33.8105 55.367 33.9459 55.4376 34.0507 55.5515C41.8172 64.0221 54.5929 77.6103 56.2368 78.3455H71.7697C73.42 77.6691 86.2217 64.1544 93.9558 55.7354C94.0606 55.6214 94.196 55.5508 94.3403 55.5348C94.4847 55.5188 94.6296 55.5584 94.7518 55.6471L111.126 67.7206C111.199 67.7743 111.262 67.8444 111.311 67.9265C111.36 68.0086 111.394 68.1012 111.411 68.1985C111.428 68.296 111.428 68.3964 111.41 68.4937C111.392 68.591 111.357 68.6832 111.307 68.7647L88.7587 104.904C88.7976 105.698 88.817 106.456 88.817 107.213V121.029C88.8172 121.167 88.7834 121.302 88.7193 121.419C88.6552 121.536 88.5635 121.63 88.4545 121.691C86.6349 122.692 84.7682 123.578 82.8627 124.345C76.8031 126.785 70.4191 128.021 63.9903 128ZM40.4839 120.544C42.1461 121.443 43.8484 122.243 45.5839 122.941C57.4935 127.725 70.4871 127.725 82.3967 122.941C84.1322 122.243 85.8345 121.443 87.4967 120.544V107.191C87.4967 106.382 87.4967 105.573 87.4255 104.713C87.4159 104.546 87.457 104.38 87.542 104.242L109.832 68.5147L94.4541 57.1765C86.5129 65.8162 73.4136 79.7941 71.802 79.7941H56.1786C54.5994 79.7941 41.4806 65.7133 33.5265 57.0001L18.149 68.3309L40.4516 104.081C40.5347 104.222 40.5756 104.389 40.5681 104.559C40.5098 105.5 40.4839 106.36 40.4839 107.176V120.544Z" fill="#390074"/>
<path d="M63.9903 103.309L57.4471 79.0588H70.5335L63.9903 103.309Z" fill="#390074"/>
<path d="M63.9903 104.044C63.8467 104.051 63.7052 104.003 63.588 103.909C63.4708 103.814 63.3847 103.678 63.3431 103.522L56.8064 79.2572C56.7773 79.1482 56.771 79.033 56.7878 78.9207C56.8047 78.8084 56.8443 78.7021 56.9035 78.6102C56.9631 78.5175 57.0409 78.442 57.1308 78.3896C57.2207 78.3373 57.3202 78.3096 57.4212 78.3087H70.5076C70.6087 78.3096 70.7081 78.3373 70.798 78.3896C70.8879 78.442 70.9658 78.5175 71.0254 78.6102C71.0846 78.7021 71.1242 78.8084 71.141 78.9207C71.1579 79.033 71.1515 79.1482 71.1225 79.2572L64.5857 103.522C64.5467 103.668 64.4684 103.798 64.3616 103.891C64.2549 103.985 64.1251 104.038 63.9903 104.044ZM58.3273 79.7793L63.9903 100.801L69.6533 79.794L58.3273 79.7793Z" fill="#390074"/>
<path d="M62.5665 82.8823C81.4286 82.8823 96.7193 65.5103 96.7193 44.081C96.7193 22.6516 81.4286 5.27966 62.5665 5.27966C43.7044 5.27966 28.4136 22.6516 28.4136 44.081C28.4136 65.5103 43.7044 82.8823 62.5665 82.8823Z" fill="#FFBC0E"/>
<path d="M62.5665 83.6175C55.6837 83.6175 48.9554 81.2987 43.2326 76.9544C37.5097 72.61 33.0493 66.4353 30.4154 59.2109C27.7815 51.9866 27.0923 44.0371 28.4351 36.3677C29.7778 28.6984 33.0922 21.6536 37.9591 16.1243C42.826 10.595 49.0268 6.82954 55.7773 5.30401C62.5279 3.77849 69.525 4.56144 75.8839 7.55387C82.2427 10.5463 87.6778 15.6138 91.5016 22.1156C95.3255 28.6173 97.3665 36.2613 97.3665 44.0809C97.3562 54.5631 93.6865 64.6126 87.1624 72.0246C80.6384 79.4366 71.7928 83.6058 62.5665 83.6175ZM62.5665 6.01491C55.9397 6.01491 49.4617 8.24744 43.9517 12.4302C38.4417 16.6129 34.1472 22.558 31.6113 29.5137C29.0753 36.4693 28.4118 44.1231 29.7046 51.5072C30.9974 58.8913 34.1885 65.674 38.8744 70.9977C43.5602 76.3213 49.5304 79.9467 56.0298 81.4155C62.5293 82.8843 69.2662 82.1304 75.3885 79.2493C81.5109 76.3682 86.7437 71.4892 90.4254 65.2293C94.107 58.9693 96.0721 51.6097 96.0721 44.0809C96.0618 33.9888 92.5285 24.3133 86.2472 17.1771C79.9659 10.0409 71.4496 6.02659 62.5665 6.01491Z" fill="#390074"/>
<path d="M48.3474 37.0148C48.3474 33.5516 50.3473 30.7502 52.8196 30.7502C55.2919 30.7502 57.2918 33.5516 57.2918 37.0148" fill="#FFBC0E"/>
<path d="M57.2918 38.1177C57.0343 38.1177 56.7874 38.0015 56.6053 37.7947C56.4232 37.5878 56.321 37.3073 56.321 37.0148C56.321 34.1692 54.7483 31.8677 52.8196 31.8677C50.8909 31.8677 49.3182 34.1839 49.3182 37.0148C49.3182 37.3073 49.216 37.5878 49.0339 37.7947C48.8518 38.0015 48.6049 38.1177 48.3474 38.1177C48.09 38.1177 47.843 38.0015 47.661 37.7947C47.4789 37.5878 47.3766 37.3073 47.3766 37.0148C47.3766 32.9486 49.8166 29.6619 52.8196 29.6619C55.8226 29.6619 58.2626 32.9633 58.2626 37.0148C58.2626 37.3073 58.1603 37.5878 57.9782 37.7947C57.7962 38.0015 57.5492 38.1177 57.2918 38.1177Z" fill="#390074"/>
<path d="M67.8735 37.0148C67.8735 33.5516 69.8733 30.7502 72.3456 30.7502C74.818 30.7502 76.8178 33.5516 76.8178 37.0148" fill="#FFBC0E"/>
<path d="M76.7855 38.1177C76.528 38.1177 76.2811 38.0015 76.099 37.7947C75.917 37.5878 75.8147 37.3073 75.8147 37.0148C75.8147 34.1692 74.242 31.8677 72.3133 31.8677C70.3847 31.8677 68.812 34.1839 68.812 37.0148C68.812 37.3073 68.7097 37.5878 68.5276 37.7947C68.3456 38.0015 68.0986 38.1177 67.8411 38.1177C67.5837 38.1177 67.3368 38.0015 67.1547 37.7947C66.9726 37.5878 66.8703 37.3073 66.8703 37.0148C66.8703 32.9486 69.3103 29.6619 72.3133 29.6619C75.3163 29.6619 77.7563 32.9633 77.7563 37.0148C77.7563 37.3073 77.654 37.5878 77.4719 37.7947C77.2899 38.0015 77.043 38.1177 76.7855 38.1177Z" fill="#390074"/>
<path d="M39.7008 47.9044C40.7776 53.8913 43.6414 59.2719 47.808 63.1361C51.9745 67.0003 57.1879 69.1109 62.5665 69.1109C67.945 69.1109 73.1584 67.0003 77.325 63.1361C81.4915 59.2719 84.3554 53.8913 85.4321 47.9044" fill="#FFBC0E"/>
<path d="M62.5665 70.2132C56.965 70.2015 51.5382 67.9971 47.2 63.9712C42.8619 59.9453 39.8775 54.3438 38.7494 48.1103C38.7239 47.9684 38.7233 47.8221 38.7475 47.6799C38.7718 47.5377 38.8205 47.4023 38.8908 47.2814C38.9611 47.1606 39.0517 47.0566 39.1574 46.9755C39.263 46.8945 39.3817 46.8378 39.5067 46.8088C39.6316 46.7799 39.7603 46.7792 39.8855 46.8067C40.0107 46.8343 40.1299 46.8896 40.2363 46.9695C40.3426 47.0493 40.4341 47.1522 40.5055 47.2723C40.5768 47.3923 40.6267 47.5272 40.6522 47.6691C41.6844 53.4067 44.4292 58.5631 48.4223 62.2663C52.4155 65.9695 57.4119 67.9922 62.5665 67.9922C67.7211 67.9922 72.7175 65.9695 76.7106 62.2663C80.7037 58.5631 83.4485 53.4067 84.4807 47.6691C84.5322 47.3825 84.6818 47.1308 84.8967 46.9695C85.1115 46.8081 85.3739 46.7503 85.6263 46.8088C85.8786 46.8673 86.1001 47.0373 86.2421 47.2814C86.3841 47.5255 86.435 47.8236 86.3835 48.1103C85.2532 54.3426 82.2682 59.9424 77.9305 63.9679C73.5929 67.9933 68.1673 70.1988 62.5665 70.2132Z" fill="#390074"/>
<path d="M63.9903 128C63.8186 128 63.654 127.922 63.5327 127.784C63.4113 127.646 63.3431 127.459 63.3431 127.264V103.309C63.3431 103.114 63.4113 102.927 63.5327 102.789C63.654 102.651 63.8186 102.573 63.9903 102.573C64.1619 102.573 64.3266 102.651 64.4479 102.789C64.5693 102.927 64.6375 103.114 64.6375 103.309V127.264C64.6375 127.459 64.5693 127.646 64.4479 127.784C64.3266 127.922 64.1619 128 63.9903 128Z" fill="#390074"/>
<path d="M74.7079 119.279C74.5839 119.279 74.4626 119.238 74.3585 119.162L70.1775 116.044C70.0885 115.977 70.0153 115.887 69.9645 115.78C69.9137 115.674 69.8868 115.555 69.8863 115.434V105.934C69.8863 105.739 69.9545 105.552 70.0759 105.414C70.1972 105.276 70.3618 105.198 70.5335 105.198H78.8759C79.0476 105.198 79.2122 105.276 79.3336 105.414C79.4549 105.552 79.5231 105.739 79.5231 105.934V115.434C79.5226 115.555 79.4957 115.674 79.4449 115.78C79.3941 115.887 79.3209 115.977 79.2319 116.044L75.051 119.162C74.9486 119.237 74.8298 119.277 74.7079 119.279ZM71.1807 115.022L74.7079 117.654L78.2287 115.022V106.669H71.1807V115.022Z" fill="#390074"/>
</svg>
